<?xml version="1.0" encoding="utf-8"?>
<!-- Generator: Adobe Illustrator 16.0.4, SVG Export Plug-In . SVG Version: 6.00 Build 0)  -->
<!DOCTYPE svg PUBLIC "-//W3C//DTD SVG 1.1//EN" "http://www.w3.org/Graphics/SVG/1.1/DTD/svg11.dtd">
<svg version="1.1" id="Layer_1" xmlns="http://www.w3.org/2000/svg" xmlns:xlink="http://www.w3.org/1999/xlink" x="0px" y="0px"
	 width="270px" height="203px" viewBox="0 0 270 203" enable-background="new 0 0 270 203" xml:space="preserve">
<g id="Layer_2_1_">
	<g id="Layer_3">
	</g>
</g>
<g id="Layer_6">
	<circle fill="#EF4136" cx="135" cy="101.5" r="72.393"/>
</g>
<g id="Layer_1_1_">
	<g id="Layer_2">
		<g>
			<circle fill="none" stroke="#434041" stroke-width="4" stroke-miterlimit="10" cx="135" cy="101.5" r="76.549"/>
			
				<circle fill="none" stroke="#434041" stroke-width="2" stroke-linecap="round" stroke-miterlimit="10" stroke-dasharray="2,5" cx="135" cy="101.5" r="82.408"/>
			<path opacity="0.5" fill="#5D5E5E" enable-background="new    " d="M200.496,102.869l-5.918-3.127l-4.206-4.238l-4.078-5.127
				l-3.551-2.506l-7.232-7.226l-5.13-4.208l-2.628-5.26l-3.288-0.92l-5.917-6.575l-2.498,2.235l-4.34,3.551l-5.522,7.626
				l-2.498,0.789l-2.367,2.367l-1.709,0.789l1.578,2.762l0.129,2.236l2.365,2.367l4.729,1.84l5.252,1.316l4.849,5.127l-4.768-2.893
				l-5.984-2.234l-5.786-1.841l-2.541-3.972v-1.025l-3.46-5.26l3.902-1.315l-9.862-13.149l-7.496-2.762l-3.682-4.602l-3.551,1.578
				l-2.236,2.76l-3.156,5.392l-2.104,0.921l-2.235,0.657l-2.762,3.419c0,0-2.893,3.156-3.287,3.156
				c-0.395,0-2.631,3.155-2.631,3.155l-3.944,6.049l-1.184,1.446l-2.104,3.155l-5.129-1.052L83.2,90.634l-2.104,2.233l-9.993,17.615
				l-3.154,1.566l-3.285,6.031l5.634-0.641l4.617-3.027l6.838-3.264l4.997-5.523l1.99,5.066l10.131-4.225l4.299-6.294l2.253-4.936
				l8.81-7.382l-3.215,5.543l13.472-5.543l-11.31,7.252l-4.861-0.089l-1.831,2.44l-4.854,7.783l7.445,2.072l-1.915-0.051
				l-4.532-0.49l-11.937,4.51l-2.104,3.133l-1.315,3.027l11.177-1.812l9.205-1.215l4.6,1.998l5.783-0.131l0.388-5.262l3.933-1.709
				l-0.154-3.025l3.24-4.207l5.078-1.883v-3.771l7.423,11.499l3.113-0.445l5.971,0.354l3.027,6.586l9.668-2.482v-2.621l0.133-3.154
				l-2.76-2.895l-4.076-2.762l5.522,0.789l3.155,2.762l3.156,0.951l2.234,3.123l9.338,1.055l-0.132-3.553l3.683,1.709l5.785-0.393
				l9.276,2.496l11.631-0.262L200.496,102.869z M114.421,79.464l-4.576,1.017l4.576-4.068V79.464z M135.333,82.495l-6.992-4.1
				v-2.897l-4.311-3.87l1.161,6.462l-4.517-6.462l-3.758,5.395v-4.728l-15.061,11.438l5.093-8.389l-4.423,1.678l4.27-6.405
				l4.449-1.362l3.94-7.187l3.356-1.308l1.983,2.523l8.489,2.757l6.658,9.915l-3.997,1.067L135.333,82.495z M182.932,91.97
				l-3.689-2.126l-5.188-5.5l-6.253-3.864l-1.983-4.068h-3.2l-7.837-7.157l3.279-2.757l4.86,5.749h3.356l3.186,5.233l5.508,5.014
				l5.42,5.406l4.646,3.282l2.739,5.057L182.932,91.97z"/>
			<g>
				<g>
					<g>
						<g>
							
								<line fill="none" stroke="#464C53" stroke-width="1.7" stroke-linecap="round" stroke-linejoin="round" x1="93.353" y1="61.689" x2="175.088" y2="143.426"/>
							<g>
								<polygon fill="#464C53" points="92.419,70.588 94.12,70.528 93.813,62.151 102.191,62.457 102.251,60.757 92.048,60.386 
																	"/>
							</g>
							<g>
								<polygon fill="#464C53" points="166.189,144.359 166.249,142.658 174.625,142.965 174.318,134.588 176.021,134.527 
									176.391,144.73 								"/>
							</g>
						</g>
					</g>
					<g>
						<g>
							
								<line fill="none" stroke="#464C53" stroke-width="1.7" stroke-linecap="round" stroke-linejoin="round" x1="176.376" y1="61.689" x2="94.64" y2="143.426"/>
							<g>
								<polygon fill="#464C53" points="167.477,60.756 167.537,62.456 175.913,62.149 175.607,70.527 177.309,70.587 
									177.679,60.384 								"/>
							</g>
							<g>
								<polygon fill="#464C53" points="93.707,134.525 95.407,134.586 95.1,142.963 103.478,142.658 103.538,144.357 
									93.336,144.729 								"/>
							</g>
						</g>
					</g>
				</g>
			</g>
			<g>
				<path fill="#464C53" d="M175.619,93.1l2.854,2.855l-18.682,18.682c-0.203,0.203-0.537,0.203-0.741,0l-1.509-1.508
					c-0.204-0.205-0.204-0.539,0-0.742l7.191-7.191c3.023-2.787,2.617-3.833,4.299-5.512L175.619,93.1L175.619,93.1z M186.84,92.799
					l-5.105,5.105l0.84,1.746c2.488-1.411,4.705-3.261,6.216-6.215L186.84,92.799z M171.15,84.569L171.15,84.569l-0.236,1.043
					c1.581,1.51,5.406,2.586,3.294,4.837c0.269,0.334,7.159,7.159,7.159,7.159l5.039-5.04
					C182.234,91.119,176.689,85.305,171.15,84.569z"/>
			</g>
			<g>
				<g id="Artwork_11_">
					<path fill="#464C53" d="M109.838,111.199l-5.244-1.791c0,0-0.219-0.104-0.303-0.188c-0.569-0.568-2.554-2.555-5.119-5.119
						c-0.102-0.07-0.033-0.17,0-0.205c3.578-3.579,7.069-7.068,9.459-9.458c2.268-2.269,1.359-4.354-0.784-2.211
						c-0.562,0.562-1.721,0.579-3.156,0.275c-0.318-0.067-0.633-0.14-0.966-0.218c-3.336-0.773-7.094-1.644-12.724,3.469
						c-0.031,0.028-0.11,0.114-0.232-0.009c-1.092-1.092-1.934-1.979-2.714-2.76c-0.171-0.171-0.036-0.289-0.036-0.289l0.41-0.41
						c0.517-0.516,0.396-1.188-0.267-1.493l-5.734-2.641c-0.663-0.306-0.956-0.013-0.651,0.65l2.64,5.734
						c0.306,0.663,0.978,0.783,1.494,0.267l0.329-0.329c0,0,0.181-0.234,0.37-0.045c0.778,0.778,1.586,1.586,2.676,2.676
						c0.137,0.121,0.121,0.226,0.096,0.253c-5.275,5.75-4.297,10.178-3.503,13.764l0.037,0.168c0.347,1.57,0.205,2.811-0.547,3.561
						c-1.63,1.631-1.048,3.896,2.488,0.361c2.44-2.441,6.028-6.029,9.686-9.686c0.027-0.027,0.083-0.066,0.192,0.025
						c2.608,2.609,4.613,4.613,5.136,5.137c0.068,0.068,0.159,0.268,0.159,0.268l1.794,5.256c0.236,0.689,0.664,0.707,0.952,0.035
						l0.706-1.648c0.288-0.67,1.072-1.455,1.743-1.742l1.649-0.707C110.545,111.863,110.529,111.436,109.838,111.199z
						 M103.207,94.522c0.329,0.077,0.67,0.155,1.009,0.228c0.402,0.085,0.789,0.146,1.159,0.182c0,0-5.698,5.699-7.597,7.599
						c-0.101,0.1-0.199-0.023-0.199-0.023c-1.687-1.688-3.282-3.283-4.948-4.947c-0.08-0.093-0.038-0.148-0.01-0.175
						C97.31,93.157,100.18,93.821,103.207,94.522z M88.346,111.961c-0.034-0.365-0.094-0.754-0.185-1.168l-0.038-0.168
						c-0.742-3.354-1.507-6.812,2.886-11.641c0.025-0.027,0.112-0.059,0.188,0.03c1.667,1.667,3.294,3.294,4.983,4.984
						c0,0,0.05,0.08-0.026,0.152C94.18,106.129,88.346,111.961,88.346,111.961z"/>
				</g>
			</g>
			<g>
				<path fill="#464C53" d="M142.205,60.831v-3.413c0-0.383-0.296-0.696-0.68-0.696h-12.604c-0.383,0-0.679,0.313-0.679,0.696v3.413
					h2.438v-1.672h9.088v1.672H142.205z"/>
				<path fill="#464C53" d="M121.003,62.188c-0.383,0-0.7,0.324-0.7,0.707v18.644c0,0.383,0.313,0.707,0.7,0.707h2.608v0.627
					c0,0.083,0.024,0.174,0.049,0.243c0.098,0.244,0.352,0.453,0.654,0.453h3.935c0.303,0,0.561-0.209,0.655-0.453
					c0.024-0.069,0.031-0.163,0.031-0.243v-0.627h12.605v0.627c0,0.083,0.007,0.174,0.03,0.243c0.099,0.244,0.354,0.453,0.656,0.453
					h3.935c0.303,0,0.561-0.209,0.653-0.453c0.024-0.069,0.049-0.163,0.049-0.243v-0.627h2.574c0.383,0,0.699-0.324,0.699-0.707
					V62.895c0-0.383-0.312-0.707-0.699-0.707h-7.232h-2.438h-9.089h-2.438H121.003z M129.147,70.759c0-0.384,0.331-0.7,0.714-0.7
					h3.186v-2.124v-1.101c0-0.383,0.313-0.711,0.7-0.711h2.952c0.384,0,0.701,0.328,0.701,0.711v1.101v2.124h3.186
					c0.383,0,0.68,0.316,0.68,0.7v2.914c0,0.383-0.297,0.7-0.68,0.7H137.4v3.225c0,0.383-0.314,0.71-0.701,0.71h-2.952
					c-0.383,0-0.7-0.327-0.7-0.71v-3.221h-3.186c-0.383,0-0.714-0.317-0.714-0.7V70.759L129.147,70.759z"/>
			</g>
			<g>
				<g>
					<path fill="#464C53" d="M145.441,142.248l-5.713-2.375l5.717-2.359c0.881-0.365,1.301-1.373,0.938-2.252
						c-0.366-0.881-1.376-1.301-2.255-0.938L135.223,138l-8.898-3.699c-0.878-0.365-1.89,0.053-2.256,0.932
						c-0.365,0.881,0.051,1.891,0.931,2.256l5.712,2.377l-5.718,2.357c-0.88,0.363-1.3,1.373-0.937,2.254
						c0.275,0.664,0.917,1.066,1.596,1.066c0.219,0,0.442-0.041,0.657-0.133l8.908-3.676l8.899,3.697
						c0.217,0.09,0.439,0.133,0.66,0.133c0.677,0,1.317-0.398,1.594-1.062C146.736,143.623,146.32,142.613,145.441,142.248z"/>
					<path fill="#464C53" d="M135.22,135.803c4.032,0,7.3-3.268,7.3-7.299c0-1.012-0.461-2.346-1.149-3.777
						c-0.089-0.188-0.3-0.291-0.502-0.246c-0.204,0.045-0.353,0.225-0.355,0.434c-0.026,1.516-0.437,2.545-0.938,3.242
						c-0.061,0.08-0.168,0.105-0.258,0.059c-0.088-0.047-0.129-0.154-0.092-0.248c0.354-0.932,0.184-2.314-1.619-4.262
						c-1.688-1.824-2.104-3.256-2.024-4.303c0.016-0.207-0.101-0.402-0.291-0.488s-0.414-0.041-0.558,0.107
						c-1.724,1.789-3.845,4.719-3.23,7.684c0.026,0.127-0.04,0.252-0.16,0.299c-0.119,0.047-0.254,0.004-0.323-0.105
						c-0.439-0.707-0.839-1.764-0.692-3.158c0.024-0.229-0.115-0.439-0.333-0.51c-0.217-0.068-0.455,0.025-0.564,0.227
						c-0.793,1.428-1.507,3.223-1.507,5.051C127.921,132.535,131.188,135.803,135.22,135.803z"/>
				</g>
			</g>
		</g>
	</g>
</g>
<g id="THE_GEAR_UP" opacity="0.98">
	<text transform="matrix(1 0 0 1 93.6367 101.5708)" fill="#FFFFFF" font-family="'AlfaSlabOne-Regular'" font-size="24">GEAR </text>
	<text transform="matrix(1 0 0 1 138.2021 121.6191)" fill="#FFFFFF" font-family="'AlfaSlabOne-Regular'" font-size="22">UP</text>
	<text transform="matrix(1 0 0 1 96.793 81.5581)" fill="#FFFFFF" font-family="'Pacifico'" font-size="8">The </text>
</g>
</svg>
