<?xml version="1.0" encoding="utf-8"?>
<!-- Generator: Adobe Illustrator 16.0.4, SVG Export Plug-In . SVG Version: 6.00 Build 0)  -->
<!DOCTYPE svg PUBLIC "-//W3C//DTD SVG 1.1//EN" "http://www.w3.org/Graphics/SVG/1.1/DTD/svg11.dtd">
<svg version="1.1" xmlns="http://www.w3.org/2000/svg" xmlns:xlink="http://www.w3.org/1999/xlink" x="0px" y="0px" width="200px"
	 height="200px" viewBox="0 0 200 200" enable-background="new 0 0 200 200" xml:space="preserve">
<g id="Layer_6">
	<circle fill="#EF4136" cx="98.05" cy="102.82" r="72.393"/>
</g>
<g id="Layer_1">
	<g id="Layer_2">
		<g>
			<circle fill="none" stroke="#434041" stroke-width="4" stroke-miterlimit="10" cx="98.33" cy="102.819" r="76.549"/>
			
				<circle fill="none" stroke="#434041" stroke-width="2" stroke-linecap="round" stroke-miterlimit="10" stroke-dasharray="2,5" cx="98.33" cy="102.819" r="82.408"/>
			<path opacity="0.5" fill="#5D5E5E" d="M163.826,104.187l-5.918-3.127l-4.206-4.238l-4.078-5.127l-3.551-2.506l-7.232-7.226
				l-5.13-4.208l-2.628-5.26l-3.288-0.92L121.878,65l-2.498,2.235l-4.34,3.551l-5.522,7.626l-2.499,0.789l-2.367,2.367l-1.709,0.789
				l1.578,2.762l0.13,2.236l2.364,2.367l4.729,1.84l5.252,1.316l4.849,5.127l-4.768-2.893l-5.984-2.234l-5.786-1.841l-2.542-3.972
				v-1.025l-3.46-5.26l3.902-1.315l-9.862-13.149l-7.496-2.762l-3.682-4.602l-3.551,1.578L76.38,63.29l-3.156,5.392l-2.104,0.921
				l-2.235,0.657l-2.762,3.419c0,0-2.893,3.156-3.287,3.156c-0.395,0-2.631,3.155-2.631,3.155l-3.944,6.049l-1.184,1.446
				l-2.104,3.155l-5.129-1.052l-1.314,2.365l-2.104,2.233l-9.993,17.616l-3.154,1.566l-3.285,6.031l5.634-0.641l4.617-3.027
				l6.838-3.264l4.997-5.523l1.99,5.066l10.131-4.225l4.299-6.294l2.253-4.936l8.81-7.382l-3.215,5.543l13.472-5.543l-11.31,7.252
				l-4.861-0.089l-1.831,2.44l-4.854,7.782l7.445,2.073l-1.915-0.05l-4.532-0.49L54.025,112.6l-2.104,3.133l-1.315,3.027
				l11.177-1.812l9.205-1.215l4.6,1.998l5.783-0.131l0.388-5.262l3.933-1.709l-0.154-3.025l3.24-4.207l5.078-1.883v-3.772
				l7.424,11.499l3.113-0.445l5.97,0.352l3.027,6.586l9.668-2.482v-2.621l0.134-3.154l-2.761-2.894l-4.075-2.763l5.522,0.789
				l3.155,2.762l3.156,0.951l2.235,3.123l9.338,1.055l-0.132-3.553l3.682,1.71l5.785-0.394l9.277,2.498l11.631-0.262
				L163.826,104.187z M77.751,80.783L73.175,81.8l4.576-4.068V80.783z M98.663,83.814l-6.992-4.1v-2.897l-4.311-3.87l1.161,6.462
				l-4.517-6.462l-3.758,5.395v-4.728L65.185,85.053l5.093-8.389l-4.423,1.678l4.27-6.405l4.449-1.362l3.94-7.187l3.356-1.308
				l1.983,2.523l8.489,2.757L99,77.275l-3.997,1.067L98.663,83.814z M146.262,93.289l-3.69-2.126l-5.187-5.5l-6.253-3.864
				l-1.983-4.068h-3.201l-7.836-7.157l3.278-2.757l4.861,5.749h3.356l3.186,5.233l5.508,5.014l5.42,5.406l4.645,3.282l2.74,5.057
				L146.262,93.289z"/>
			<g>
				<g>
					<g>
						<g>
							
								<line fill="none" stroke="#464C53" stroke-width="1.7" stroke-linecap="round" stroke-linejoin="round" x1="56.683" y1="63.008" x2="138.418" y2="144.744"/>
							<g>
								<polygon fill="#464C53" points="55.749,71.907 57.45,71.847 57.143,63.47 65.521,63.776 65.581,62.076 55.378,61.705 
																	"/>
							</g>
							<g>
								<polygon fill="#464C53" points="129.519,145.678 129.579,143.977 137.955,144.284 137.649,135.906 139.351,135.846 
									139.721,146.049 								"/>
							</g>
						</g>
					</g>
					<g>
						<g>
							
								<line fill="none" stroke="#464C53" stroke-width="1.7" stroke-linecap="round" stroke-linejoin="round" x1="139.706" y1="63.008" x2="57.97" y2="144.744"/>
							<g>
								<polygon fill="#464C53" points="130.807,62.075 130.867,63.775 139.243,63.468 138.938,71.846 140.639,71.906 
									141.009,61.703 								"/>
							</g>
							<g>
								<polygon fill="#464C53" points="57.037,135.845 58.737,135.905 58.43,144.281 66.808,143.976 66.868,145.677 
									56.666,146.047 								"/>
							</g>
						</g>
					</g>
				</g>
			</g>
			<g>
				<path fill="#464C53" d="M138.949,94.419l2.854,2.855l-18.682,18.682c-0.203,0.203-0.537,0.203-0.741,0l-1.509-1.509
					c-0.204-0.204-0.204-0.538,0-0.742l7.191-7.191c3.024-2.788,2.618-3.832,4.299-5.512L138.949,94.419L138.949,94.419z
					 M150.17,94.118l-5.105,5.105l0.84,1.746c2.487-1.411,4.705-3.261,6.215-6.215L150.17,94.118z M134.48,85.888L134.48,85.888
					l-0.236,1.043c1.581,1.51,5.407,2.586,3.294,4.837c0.269,0.334,7.159,7.159,7.159,7.159l5.039-5.04
					C145.564,92.438,140.02,86.624,134.48,85.888z"/>
			</g>
			<g>
				<g id="Artwork_11_">
					<path fill="#464C53" d="M73.168,112.518l-5.244-1.791c0,0-0.219-0.104-0.303-0.188c-0.569-0.568-2.554-2.555-5.119-5.119
						c-0.102-0.07-0.033-0.17,0-0.205c3.578-3.578,7.069-7.068,9.459-9.458c2.268-2.269,1.359-4.354-0.784-2.211
						c-0.562,0.562-1.721,0.579-3.156,0.275c-0.318-0.067-0.633-0.14-0.966-0.218c-3.336-0.773-7.094-1.644-12.724,3.469
						c-0.031,0.028-0.11,0.114-0.232-0.009c-1.092-1.092-1.934-1.979-2.714-2.76c-0.171-0.171-0.036-0.289-0.036-0.289l0.41-0.41
						c0.517-0.516,0.396-1.188-0.267-1.493l-5.734-2.641c-0.663-0.306-0.956-0.013-0.651,0.65l2.64,5.734
						c0.306,0.663,0.978,0.783,1.494,0.267l0.329-0.329c0,0,0.181-0.234,0.37-0.045c0.778,0.778,1.586,1.586,2.676,2.676
						c0.137,0.121,0.121,0.226,0.096,0.253c-5.275,5.751-4.297,10.177-3.503,13.763l0.037,0.168
						c0.347,1.572,0.205,2.811-0.547,3.562c-1.63,1.631-1.048,3.896,2.488,0.361c2.44-2.441,6.028-6.029,9.686-9.686
						c0.027-0.027,0.083-0.066,0.192,0.025c2.608,2.609,4.613,4.613,5.136,5.137c0.068,0.068,0.159,0.268,0.159,0.268l1.794,5.256
						c0.236,0.689,0.664,0.707,0.952,0.035l0.706-1.648c0.288-0.67,1.072-1.455,1.743-1.742l1.649-0.707
						C73.875,113.182,73.859,112.754,73.168,112.518z M66.537,95.841c0.329,0.077,0.67,0.155,1.009,0.228
						c0.402,0.085,0.789,0.146,1.159,0.182c0,0-5.698,5.699-7.597,7.599c-0.101,0.1-0.199-0.023-0.199-0.023
						c-1.687-1.688-3.282-3.283-4.948-4.947c-0.08-0.093-0.038-0.148-0.01-0.175C60.64,94.476,63.51,95.14,66.537,95.841z
						 M51.676,113.279c-0.034-0.365-0.094-0.754-0.185-1.168l-0.038-0.168c-0.742-3.352-1.507-6.812,2.886-11.64
						c0.025-0.027,0.112-0.059,0.188,0.03c1.667,1.667,3.294,3.295,4.983,4.983c0,0,0.05,0.08-0.026,0.154
						C57.51,107.447,51.676,113.279,51.676,113.279z"/>
				</g>
			</g>
			<g>
				<path fill="#464C53" d="M105.535,62.15v-3.413c0-0.383-0.296-0.696-0.679-0.696H92.251c-0.383,0-0.679,0.313-0.679,0.696v3.413
					h2.438v-1.672h9.088v1.672H105.535z"/>
				<path fill="#464C53" d="M84.333,63.507c-0.383,0-0.7,0.324-0.7,0.707v18.644c0,0.383,0.313,0.707,0.7,0.707h2.608v0.627
					c0,0.083,0.024,0.174,0.049,0.243c0.098,0.244,0.352,0.453,0.654,0.453h3.935c0.303,0,0.561-0.209,0.655-0.453
					c0.024-0.069,0.031-0.163,0.031-0.243v-0.627h12.605v0.627c0,0.083,0.007,0.174,0.031,0.243
					c0.098,0.244,0.353,0.453,0.655,0.453h3.935c0.303,0,0.561-0.209,0.654-0.453c0.024-0.069,0.049-0.163,0.049-0.243v-0.627h2.573
					c0.383,0,0.7-0.324,0.7-0.707V64.214c0-0.383-0.313-0.707-0.7-0.707h-7.232h-2.438h-9.088h-2.438H84.333z M92.477,72.078
					c0-0.384,0.331-0.7,0.714-0.7h3.186v-2.124v-1.101c0-0.383,0.313-0.711,0.7-0.711h2.952c0.384,0,0.701,0.328,0.701,0.711v1.101
					v2.124h3.186c0.383,0,0.68,0.316,0.68,0.7v2.914c0,0.383-0.297,0.7-0.68,0.7h-3.186v3.225c0,0.383-0.314,0.71-0.701,0.71h-2.952
					c-0.383,0-0.7-0.327-0.7-0.71v-3.221h-3.186c-0.383,0-0.714-0.317-0.714-0.7V72.078L92.477,72.078z"/>
			</g>
			<g>
				<g>
					<path fill="#464C53" d="M108.771,143.566l-5.712-2.375l5.717-2.358c0.88-0.365,1.3-1.373,0.938-2.253
						c-0.366-0.88-1.376-1.301-2.255-0.938l-8.906,3.677l-8.898-3.699c-0.878-0.365-1.89,0.053-2.256,0.932
						c-0.365,0.88,0.051,1.889,0.931,2.255l5.712,2.376l-5.718,2.358c-0.88,0.364-1.3,1.373-0.937,2.254
						c0.275,0.665,0.917,1.066,1.596,1.066c0.219,0,0.442-0.041,0.657-0.132l8.908-3.676l8.899,3.698
						c0.217,0.09,0.439,0.133,0.661,0.133c0.676,0,1.317-0.4,1.593-1.064C110.066,144.942,109.65,143.932,108.771,143.566z"/>
					<path fill="#464C53" d="M98.55,137.122c4.032,0,7.3-3.268,7.3-7.299c0-1.012-0.461-2.347-1.15-3.778
						c-0.088-0.188-0.299-0.29-0.502-0.245c-0.204,0.044-0.352,0.224-0.355,0.433c-0.027,1.515-0.437,2.545-0.939,3.241
						c-0.06,0.081-0.168,0.106-0.258,0.059c-0.087-0.047-0.129-0.153-0.092-0.247c0.354-0.932,0.184-2.315-1.618-4.263
						c-1.688-1.823-2.104-3.256-2.025-4.303c0.016-0.207-0.101-0.402-0.291-0.487c-0.19-0.087-0.414-0.042-0.558,0.108
						c-1.724,1.789-3.845,4.717-3.23,7.683c0.026,0.126-0.04,0.251-0.16,0.298c-0.119,0.048-0.254,0.004-0.323-0.105
						c-0.439-0.707-0.839-1.764-0.692-3.159c0.024-0.227-0.115-0.439-0.333-0.508c-0.217-0.069-0.455,0.025-0.564,0.226
						c-0.793,1.428-1.507,3.222-1.507,5.05C91.251,133.854,94.518,137.122,98.55,137.122z"/>
				</g>
			</g>
		</g>
	</g>
</g>
<g id="THE_GEAR_UP" opacity="0.98">
	<text transform="matrix(1 0 0 1 59.3418 111.1885)" fill="#FFFFFF" font-family="'AlfaSlabOne-Regular'" font-size="24">GEAR </text>
	<text transform="matrix(1 0 0 1 103.9072 131.2373)" fill="#FFFFFF" font-family="'AlfaSlabOne-Regular'" font-size="22">UP</text>
	<text transform="matrix(1 0 0 1 62.498 91.1753)" fill="#FFFFFF" font-family="'Pacifico'" font-size="8">The </text>
</g>
<g id="Layer_5">
	<g>
		<line display="none" fill="none" stroke="#E5E6E7" stroke-miterlimit="10" x1="31" y1="133.5" x2="164" y2="133.5"/>
		<line display="none" fill="none" stroke="#E5E6E7" stroke-miterlimit="10" x1="31" y1="91.5" x2="164" y2="91.5"/>
	</g>
</g>
</svg>
